<svg width="640" height="480" xmlns="http://www.w3.org/2000/svg">
 <!-- Created with SVG-edit - http://svg-edit.googlecode.com/ -->
 <g>
  <title>Layer 1</title>
  <path id="svg_1" d="m440.995819,222.431427l-100.039185,0l-30.891418,-95.061951l-4.336975,13.290436l-26.580902,81.786713l-100.0392,-0.015198l80.937698,58.805664l-30.946365,95.118988l80.938889,-58.805725l80.964447,58.819122l-30.972992,-95.132385l80.966003,-58.805664zm-120.225586,80.367859l-10.731873,-7.770172l-10.70459,7.78537l-35.534119,25.815033l13.567932,-41.761627l4.114655,-12.581726l-10.731659,-7.798096l-35.534439,-25.8172l57.166946,0l4.114075,-12.579941l13.541199,-41.762833l13.568481,41.7341l4.114105,12.58165l57.221771,0l-35.589325,25.844223l-10.733459,7.771515l4.088196,12.608307l13.59671,41.761627l-35.534607,-25.830231z" stroke-width="5" stroke="#000000" fill="#0000ff"/>
 </g>
</svg>