<svg width="280" height="267" xmlns="http://www.w3.org/2000/svg">
 <!-- Created with SVG-edit - http://svg-edit.googlecode.com/ -->
 <g>
  <title>Layer 1</title>
  <path d="m270.943848,104.561951l-100.039185,0l-30.891418,-95.061951l-4.336975,13.29043l-26.58091,81.786718l-100.0392,-0.015198l80.937698,58.805664l-30.946369,95.118988l80.9389,-58.80574l80.964447,58.819107l-30.972992,-95.13237l80.966003,-58.805656l0,0.000008zm-120.225601,80.367859l-10.731857,-7.770172l-10.70459,7.78537l-35.534126,25.815033l13.567917,-41.761627l4.114647,-12.581726l-10.731659,-7.798111l-35.534439,-25.817215l57.166954,0l4.114067,-12.579933l13.541214,-41.76284l13.568481,41.734123l4.11412,12.58165l57.221771,0l-35.589325,25.844215l-10.733459,7.7715l4.088196,12.608307l13.59671,41.761642l-35.534622,-25.830231l0,0.000031l0,-0.000031l0,0.000015z" stroke-width="5" stroke="#000000" fill="#0000ff" id="svg_1"/>
 </g>
</svg>